<?xml version="1.0" encoding="utf-8"?>
<!-- Generator: Adobe Illustrator 28.1.0, SVG Export Plug-In . SVG Version: 6.00 Build 0)  -->
<svg version="1.1" id="Calque_1" xmlns="http://www.w3.org/2000/svg" xmlns:xlink="http://www.w3.org/1999/xlink" x="0px" y="0px"
	 viewBox="0 0 12 10.2" style="enable-background:new 0 0 12 10.2;" xml:space="preserve">
<path d="M5.3,10L5.3,10L1.1,6.1C0.4,5.4,0,4.5,0,3.5V3.4c0-1.7,1.2-3.1,2.8-3.4c0.9-0.2,1.9,0,2.6,0.6C5.6,0.8,5.8,1,6,1.2
	C6.1,1,6.2,0.9,6.3,0.8c0.1-0.1,0.2-0.1,0.3-0.2l0,0c0.8-0.5,1.7-0.7,2.6-0.6C10.8,0.4,12,1.8,12,3.4v0.1c0,1-0.4,1.9-1.1,2.6
	L6.8,9.9L6.7,10c-0.2,0.2-0.4,0.3-0.7,0.3S5.5,10.2,5.3,10z M5.6,2.4C5.6,2.4,5.6,2.4,5.6,2.4L5.2,1.9l0,0l0,0C4.6,1.3,3.8,1,3,1.2
	C1.9,1.4,1.1,2.3,1.1,3.4v0.1c0,0.7,0.3,1.3,0.8,1.8L6,9.1l4.1-3.8c0.5-0.5,0.8-1.1,0.8-1.8V3.4c0-1.1-0.8-2.1-1.9-2.3
	C8.2,1,7.4,1.3,6.8,1.9c0,0,0,0,0,0c0,0,0,0,0,0L6.4,2.4c0,0,0,0,0,0C6.3,2.5,6.1,2.6,6,2.6S5.7,2.5,5.6,2.4L5.6,2.4z"/>
</svg>
